# xmcd
#
# Track frame offsets:
#	150
#	7862
#	33875
#	45112
#	68387
#	79800
#	94087
#	102962
#	124950
#	139787
#	161525
#	166262
#	185375
#	194737
#	200837
#	224362
#	241887
#	262137
#	281662
#	297275
#
# Disc length: 4201 seconds
#
# Revision: 1
# Processed by: cddbd v1.5.1PL0 Copyright (c) Steve Scherf et al.
# Submitted via: CDex 1.50Beta5
#
DISCID=1c106714
DTITLE=Various Artist - Romance
DYEAR=1900
DGENRE=Classical
TTITLE0=「弦楽セレナード」第一楽章より冒頭
TTITLE1=ベートーヴェン：ピアノソナタ「月光」第一楽章より
TTITLE2=プッチーニ：私のお父さん〜歌劇「ジャンニ・スキッキ」より
TTITLE3=ヘンデル：オンブラ・マイ・フ
TTITLE4=踊り明かそう〜マイ・フェア・レディより
TTITLE5=千住明：Eternal Story
TTITLE6=サティ：大リトルネッロ〜「風変わりな美女」より
TTITLE7=ドヴォルザーク：チェロ協奏曲　ロ短調　第二楽章より
TTITLE8=ヘンデル：私を泣かせてください
TTITLE9=坂本龍一「エナジーフロウ」
TTITLE10=ショパン：２４の前奏曲より第七番
TTITLE11=ショパン：別れの曲
TTITLE12=Close To You〜セナのピアノ
TTITLE13=ドリーブ：コッペリア：ワルツより
TTITLE14=パガニーニ：２４の奇想曲より第２４番
TTITLE15=サティ：あなたが大好き
TTITLE16=リトル・スコティッシュ・ファンタジー
TTITLE17=ビゼー：ハバネラ〜歌劇「カルメン」より
TTITLE18=ブラームス：弦楽６重奏曲　第一番「恋人たち」第二楽章より
TTITLE19=タイム・トゥ・セイ・グッバイ
EXTD=
EXTT0=
EXTT1=
EXTT2=
EXTT3=
EXTT4=
EXTT5=
EXTT6=
EXTT7=
EXTT8=
EXTT9=
EXTT10=
EXTT11=
EXTT12=
EXTT13=
EXTT14=
EXTT15=
EXTT16=
EXTT17=
EXTT18=
EXTT19=
PLAYORDER=
